<svg width="43" height="31" xmlns="http://www.w3.org/2000/svg">

 <g>
  <title>Layer 1</title>
  <path id="svg_1" stroke-width="3.13498" stroke="#fff" fill="none" d="m40.615,17.121c0.67,-2.167 -0.233,-4.275 -1.905,-6.137c-0.152,-0.171 -0.322,-0.362 -0.506,-0.566c0.525,-1.998 0.266,-3.677 -0.816,-5.159c-1.435,-1.962 -4.476,-2.408 -7.162,-1.909l-0.134,0.029c-1.381,-0.797 -3.002,-1.383 -4.995,-1.666c-4.81,-0.68 -8.404,1.08 -12.235,3.167c-3.16,1.722 -5.838,3.431 -7.21,6.095c-0.42,0.257 -0.823,0.53 -1.209,0.827c-3.84,2.945 -3.99,6.358 0.5,9.642c0.878,0.643 2.316,1.37 3.488,1.787c0.03,0.01 0.064,0.021 0.093,0.033c0.575,0.564 1.25,1.202 1.635,1.496c2.05,1.553 4.518,2.892 7.78,3.34c3.915,0.539 8.737,0.53 12.27,-0.7c0.24,-0.085 0.476,-0.173 0.704,-0.269c0.481,0.032 0.957,0.05 1.423,0.053c4.158,0.024 7.699,-1.137 8.24,-5.309c0.082,-0.644 0,-1.257 -0.184,-1.854a7.893,7.893 0 0 0 -0.54,-1.282l0.102,-0.207c0.197,-0.414 0.534,-1.003 0.661,-1.41l0,-0.001z"/>
  <path id="svg_2" fill="#fabe00" d="m40.837,17.157c0.677,-2.204 -0.236,-4.347 -1.927,-6.24l-0.512,-0.576c-0.043,0.163 -0.09,0.328 -0.144,0.496c-0.23,0.774 -0.395,1.507 -0.383,2.143c0.037,1.918 0.933,3.57 1.886,5.25c0.107,0.188 0.21,0.379 0.308,0.57l0.103,-0.209c0.198,-0.42 0.54,-1.02 0.669,-1.434m-21.082,8.278c-2.544,-0.428 -6.399,-0.778 -9.532,-1.502a16.01,16.01 0 0 1 -1.842,-0.532c0.58,0.574 1.263,1.223 1.653,1.521c2.073,1.579 4.569,2.94 7.869,3.396c3.959,0.548 8.835,0.538 12.409,-0.713c0.242,-0.085 0.481,-0.174 0.712,-0.272a29,29 0 0 1 -1.125,-0.09c-3.779,-0.375 -7.721,-1.4 -10.144,-1.808"/>
  <path id="svg_3" fill="#e60012" d="m35.457,7.225c1.088,1.049 2.146,2.223 2.941,3.116c0.531,-2.03 0.269,-3.737 -0.826,-5.244c-1.45,-1.995 -4.526,-2.448 -7.244,-1.941c-0.027,0.007 -0.074,0.015 -0.134,0.03c0.185,0.106 0.369,0.218 0.548,0.333c1.522,0.934 3.28,2.325 4.715,3.706m-3.632,19.719a6.306,6.306 0 0 1 -0.801,0.39c0.486,0.031 0.968,0.05 1.44,0.053c4.204,0.024 7.786,-1.156 8.332,-5.397c0.084,-0.655 0,-1.28 -0.185,-1.886a7.999,7.999 0 0 0 -0.545,-1.303a13.788,13.788 0 0 1 -0.928,1.575c-1.797,2.643 -4.577,4.964 -7.313,6.568m-24.307,-4.419c-2.99,-3.162 -3.694,-6.947 -2.563,-10.379c0.143,-0.435 0.318,-0.846 0.52,-1.238c-0.424,0.26 -0.832,0.54 -1.223,0.84c-3.883,2.995 -4.035,6.465 0.506,9.803c0.889,0.654 2.343,1.392 3.529,1.817c0.03,0.01 0.063,0.021 0.093,0.033a44.748,44.748 0 0 1 -0.862,-0.876"/>
  <path id="svg_4" fill="#fabe00" d="m19.207,6.134c4.809,-1.45 9.58,-2.627 9.797,-2.678c0.156,-0.038 0.863,-0.2 1.19,-0.27c-1.398,-0.81 -3.037,-1.407 -5.053,-1.694c-4.865,-0.692 -8.499,1.098 -12.374,3.22c-3.195,1.75 -5.904,3.488 -7.292,6.196c1.057,-0.657 2.203,-1.196 3.358,-1.657c1.722,-0.685 8.023,-2.406 10.374,-3.117"/>
  <path id="svg_5" fill="#ed6d00" d="m39.757,18.23c-0.953,-1.681 -1.849,-3.332 -1.886,-5.25c-0.012,-0.636 0.153,-1.369 0.383,-2.143c0.055,-0.168 0.1,-0.333 0.144,-0.495c-0.795,-0.895 -1.853,-2.068 -2.94,-3.117c-1.436,-1.38 -3.194,-2.772 -4.716,-3.707a12.539,12.539 0 0 0 -0.548,-0.333c-0.328,0.07 -1.034,0.233 -1.19,0.27c-0.217,0.052 -4.988,1.23 -9.797,2.68c-2.35,0.71 -8.652,2.43 -10.374,3.116c-1.155,0.46 -2.301,1 -3.359,1.657a8.573,8.573 0 0 0 -0.52,1.238c-1.13,3.432 -0.426,7.217 2.564,10.379c0.187,0.198 0.506,0.523 0.863,0.876c0.561,0.204 1.18,0.38 1.841,0.532c3.134,0.724 6.989,1.074 9.533,1.502c2.423,0.408 6.365,1.433 10.144,1.808c0.379,0.038 0.753,0.067 1.125,0.09c0.28,-0.115 0.549,-0.24 0.8,-0.389c2.737,-1.604 5.517,-3.926 7.314,-6.568c0.353,-0.522 0.666,-1.05 0.927,-1.576a15.93,15.93 0 0 0 -0.308,-0.57"/>
  <path id="svg_6" fill="#fff" d="m10.177,11.459l0.394,0c0.455,0 0.893,0.046 0.893,0.535c0,0.449 -0.461,0.565 -0.907,0.565l-0.38,0l0,-1.1zm-1.359,4.32l2.151,0c0.912,0 1.985,-0.27 1.985,-1.542c0,-0.648 -0.35,-1.03 -1.03,-1.174l0,-0.017c0.57,-0.199 0.898,-0.571 0.898,-1.243c0,-0.917 -0.709,-1.35 -1.657,-1.35l-2.347,0l0,5.326zm1.359,-2.257l0.417,0c0.467,0 1,0.05 1,0.63c0,0.544 -0.516,0.619 -1.014,0.619l-0.403,0l0,-1.249zm2.693,2.256l1.382,0l0.402,-1.136l1.913,0l0.38,1.136l1.49,0l-1.965,-5.326l-1.667,0l-1.935,5.326zm3.376,-2.143l-1.28,0l0.66,-2.082l0.013,0l0.607,2.082zm2.46,-3.183l1.733,0l1.725,3.617l0.013,0l-0.019,-3.617l1.241,0l0,5.326l-1.688,0l-1.786,-3.639l-0.014,0l0.043,3.64l-1.249,0l0.001,-5.327zm5.467,5.326l1.857,0c1.738,0 3.016,-0.694 3.016,-2.684c0,-2.063 -1.24,-2.642 -3.016,-2.642l-1.857,0l0,5.326zm1.359,-4.273l0.528,0c0.992,0 1.585,0.55 1.585,1.61c0,1.062 -0.57,1.612 -1.585,1.612l-0.528,0l0,-3.222zm3.208,4.273l1.382,0l0.402,-1.136l1.914,0l0.38,1.136l1.492,0l-1.965,-5.326l-1.668,0l-1.937,5.326zm3.379,-2.143l-1.282,0l0.66,-2.082l0.014,0l0.608,2.082zm2.399,-3.182l1.359,0l0,5.326l-1.36,0l0.001,-5.326zm-25.699,6.484l1.75,0l1.741,3.619l0.017,0l-0.024,-3.619l1.256,0l0,5.325l-1.707,0l-1.8,-3.639l-0.015,0l0.045,3.64l-1.264,0l0.001,-5.326zm5.015,5.325l1.397,0l0.404,-1.134l1.935,0l0.383,1.134l1.508,0l-1.987,-5.325l-1.683,0l-1.957,5.325zm3.413,-2.142l-1.293,0l0.663,-2.084l0.015,0l0.615,2.084zm2.488,-3.183l2.166,0l0.893,3.54l0.015,0l0.943,-3.54l2.083,0l0,5.325l-1.345,0l0.023,-4.088l-0.016,0l-1.114,4.088l-1.262,0l-1.058,-4.088l-0.013,0l0.029,4.088l-1.345,0l0.001,-5.325zm11.05,5.205c-0.392,0.098 -0.828,0.215 -1.53,0.215c-1.374,0 -2.962,-0.719 -2.962,-2.734c0,-1.852 1.256,-2.779 2.954,-2.779c0.524,0 1.033,0.124 1.528,0.276l-0.11,1.152c-0.443,-0.25 -0.872,-0.374 -1.343,-0.374c-0.975,0 -1.61,0.734 -1.61,1.725c0,1.047 0.715,1.682 1.72,1.682c0.45,0 0.908,-0.125 1.285,-0.277l0.068,1.114zm0.21,-2.541c0,1.694 0.9,2.756 2.586,2.756c1.682,0 2.583,-1.062 2.583,-2.756c0,-1.708 -0.886,-2.756 -2.583,-2.756c-1.7,0 -2.586,1.048 -2.586,2.756m1.42,0c0,-0.924 0.33,-1.703 1.166,-1.703c0.833,0 1.166,0.779 1.166,1.703c0,0.877 -0.333,1.704 -1.166,1.704c-0.836,0 -1.167,-0.827 -1.167,-1.704"/>
 </g>
</svg>